<?xml version="1.0" encoding="UTF-8" standalone="no"?>
<!DOCTYPE svg PUBLIC "-//W3C//DTD SVG 1.1//EN"
 "http://www.w3.org/Graphics/SVG/1.1/DTD/svg11.dtd">
<!-- Generated by graphviz version 2.40.1 (20161225.0304)
 -->
<!-- Title: dependencies Pages: 1 -->
<svg width="735pt" height="284pt"
 viewBox="0.00 0.00 735.00 284.00" xmlns="http://www.w3.org/2000/svg" xmlns:xlink="http://www.w3.org/1999/xlink">
<g id="graph0" class="graph" transform="scale(1 1) rotate(0) translate(4 280)">
<title>dependencies</title>
<polygon fill="#ffffff" stroke="transparent" points="-4,4 -4,-280 731,-280 731,4 -4,4"/>
<text text-anchor="start" x="342.5091" y="-42.4" font-family="sans-serif" font-weight="bold" font-size="14.00" fill="#000000">Legend</text>
<polygon fill="#ffffb3" stroke="transparent" points="129.5,-10 129.5,-30 149.5,-30 149.5,-10 129.5,-10"/>
<text text-anchor="start" x="153.129" y="-15.4" font-family="sans-serif" font-size="14.00" fill="#000000"> &#160;Declarations</text>
<polygon fill="#8dd3c7" stroke="transparent" points="242.5,-10 242.5,-30 262.5,-30 262.5,-10 242.5,-10"/>
<text text-anchor="start" x="266.2251" y="-15.4" font-family="sans-serif" font-size="14.00" fill="#000000"> &#160;Module</text>
<polygon fill="#80b1d3" stroke="transparent" points="328.5,-10 328.5,-30 348.5,-30 348.5,-10 328.5,-10"/>
<text text-anchor="start" x="352.2812" y="-15.4" font-family="sans-serif" font-size="14.00" fill="#000000"> &#160;Bootstrap</text>
<polygon fill="#fdb462" stroke="transparent" points="425.5,-10 425.5,-30 445.5,-30 445.5,-10 425.5,-10"/>
<text text-anchor="start" x="449.1732" y="-15.4" font-family="sans-serif" font-size="14.00" fill="#000000"> &#160;Providers</text>
<polygon fill="#fb8072" stroke="transparent" points="521.5,-10 521.5,-30 541.5,-30 541.5,-10 521.5,-10"/>
<text text-anchor="start" x="545.2258" y="-15.4" font-family="sans-serif" font-size="14.00" fill="#000000"> &#160;Exports</text>
<g id="clust1" class="cluster">
<title>cluster_CoreModule</title>
<polygon fill="none" stroke="#000000" stroke-dasharray="1,5" points="8,-70 8,-268 719,-268 719,-70 8,-70"/>
</g>
<g id="clust2" class="cluster">
<title>cluster_CoreModule_declarations</title>
<polygon fill="none" stroke="#000000" points="138,-78 138,-130 711,-130 711,-78 138,-78"/>
</g>
<g id="clust7" class="cluster">
<title>cluster_CoreModule_imports</title>
<polygon fill="none" stroke="#000000" points="16,-78 16,-130 130,-130 130,-78 16,-78"/>
</g>
<g id="clust8" class="cluster">
<title>cluster_CoreModule_exports</title>
<polygon fill="none" stroke="#000000" points="279,-208 279,-260 435,-260 435,-208 279,-208"/>
</g>
<!-- BsNavbarComponent -->
<g id="node1" class="node">
<title>BsNavbarComponent</title>
<polygon fill="#ffffb3" stroke="#000000" points="702.8104,-122 565.1896,-122 565.1896,-86 702.8104,-86 702.8104,-122"/>
<text text-anchor="middle" x="634" y="-99.8" font-family="Times,serif" font-size="14.00" fill="#000000">BsNavbarComponent</text>
</g>
<!-- CoreModule -->
<g id="node5" class="node">
<title>CoreModule</title>
<polygon fill="#8dd3c7" stroke="#000000" points="400.2619,-187 397.2619,-191 376.2619,-191 373.2619,-187 313.7381,-187 313.7381,-151 400.2619,-151 400.2619,-187"/>
<text text-anchor="middle" x="357" y="-164.8" font-family="Times,serif" font-size="14.00" fill="#000000">CoreModule</text>
</g>
<!-- BsNavbarComponent&#45;&gt;CoreModule -->
<g id="edge1" class="edge">
<title>BsNavbarComponent&#45;&gt;CoreModule</title>
<path fill="none" stroke="#000000" d="M634,-122.2843C634,-143.3211 634,-175 634,-175 634,-175 410.2813,-175 410.2813,-175"/>
<polygon fill="#000000" stroke="#000000" points="410.2813,-171.5001 400.2813,-175 410.2812,-178.5001 410.2813,-171.5001"/>
</g>
<!-- HomeComponent -->
<g id="node2" class="node">
<title>HomeComponent</title>
<polygon fill="#ffffb3" stroke="#000000" points="547.5451,-122 432.4549,-122 432.4549,-86 547.5451,-86 547.5451,-122"/>
<text text-anchor="middle" x="490" y="-99.8" font-family="Times,serif" font-size="14.00" fill="#000000">HomeComponent</text>
</g>
<!-- HomeComponent&#45;&gt;CoreModule -->
<g id="edge2" class="edge">
<title>HomeComponent&#45;&gt;CoreModule</title>
<path fill="none" stroke="#000000" d="M490,-122.0225C490,-139.3734 490,-163 490,-163 490,-163 410.5492,-163 410.5492,-163"/>
<polygon fill="#000000" stroke="#000000" points="410.5492,-159.5001 400.5492,-163 410.5491,-166.5001 410.5492,-159.5001"/>
</g>
<!-- LoginComponent -->
<g id="node3" class="node">
<title>LoginComponent</title>
<polygon fill="#ffffb3" stroke="#000000" points="414.2758,-122 299.7242,-122 299.7242,-86 414.2758,-86 414.2758,-122"/>
<text text-anchor="middle" x="357" y="-99.8" font-family="Times,serif" font-size="14.00" fill="#000000">LoginComponent</text>
</g>
<!-- LoginComponent&#45;&gt;CoreModule -->
<g id="edge3" class="edge">
<title>LoginComponent&#45;&gt;CoreModule</title>
<path fill="none" stroke="#000000" d="M357,-122.1061C357,-122.1061 357,-140.991 357,-140.991"/>
<polygon fill="#000000" stroke="#000000" points="353.5001,-140.9909 357,-150.991 360.5001,-140.991 353.5001,-140.9909"/>
</g>
<!-- NgbdCarouselConfig -->
<g id="node4" class="node">
<title>NgbdCarouselConfig</title>
<polygon fill="#ffffb3" stroke="#000000" points="281.7562,-122 146.2438,-122 146.2438,-86 281.7562,-86 281.7562,-122"/>
<text text-anchor="middle" x="214" y="-99.8" font-family="Times,serif" font-size="14.00" fill="#000000">NgbdCarouselConfig</text>
</g>
<!-- NgbdCarouselConfig&#45;&gt;CoreModule -->
<g id="edge4" class="edge">
<title>NgbdCarouselConfig&#45;&gt;CoreModule</title>
<path fill="none" stroke="#000000" d="M214,-122.0225C214,-139.3734 214,-163 214,-163 214,-163 303.7072,-163 303.7072,-163"/>
<polygon fill="#000000" stroke="#000000" points="303.7073,-166.5001 313.7072,-163 303.7072,-159.5001 303.7073,-166.5001"/>
</g>
<!-- BsNavbarComponent  -->
<g id="node7" class="node">
<title>BsNavbarComponent </title>
<polygon fill="#fb8072" stroke="#000000" points="427.3101,-252 286.6899,-252 286.6899,-216 427.3101,-216 427.3101,-252"/>
<text text-anchor="middle" x="357" y="-229.8" font-family="Times,serif" font-size="14.00" fill="#000000">BsNavbarComponent </text>
</g>
<!-- CoreModule&#45;&gt;BsNavbarComponent  -->
<g id="edge6" class="edge">
<title>CoreModule&#45;&gt;BsNavbarComponent </title>
<path fill="none" stroke="#000000" stroke-dasharray="5,2" d="M357,-187.1061C357,-187.1061 357,-205.991 357,-205.991"/>
<polygon fill="#000000" stroke="#000000" points="353.5001,-205.9909 357,-215.991 360.5001,-205.991 353.5001,-205.9909"/>
</g>
<!-- SharedModule -->
<g id="node6" class="node">
<title>SharedModule</title>
<polygon fill="#8dd3c7" stroke="#000000" points="122.4231,-122 119.4231,-126 98.4231,-126 95.4231,-122 23.5769,-122 23.5769,-86 122.4231,-86 122.4231,-122"/>
<text text-anchor="middle" x="73" y="-99.8" font-family="Times,serif" font-size="14.00" fill="#000000">SharedModule</text>
</g>
<!-- SharedModule&#45;&gt;CoreModule -->
<g id="edge5" class="edge">
<title>SharedModule&#45;&gt;CoreModule</title>
<path fill="none" stroke="#000000" d="M73,-122.2843C73,-143.3211 73,-175 73,-175 73,-175 303.5574,-175 303.5574,-175"/>
<polygon fill="#000000" stroke="#000000" points="303.5574,-178.5001 313.5574,-175 303.5573,-171.5001 303.5574,-178.5001"/>
</g>
</g>
</svg>
