<?xml version="1.0" encoding="UTF-8" standalone="no"?>
<!DOCTYPE svg PUBLIC "-//W3C//DTD SVG 1.1//EN"
 "http://www.w3.org/Graphics/SVG/1.1/DTD/svg11.dtd">
<!-- Generated by graphviz version 2.40.1 (20161225.0304)
 -->
<!-- Title: dependencies Pages: 1 -->
<svg width="1353pt" height="284pt"
 viewBox="0.00 0.00 1353.00 284.00" xmlns="http://www.w3.org/2000/svg" xmlns:xlink="http://www.w3.org/1999/xlink">
<g id="graph0" class="graph" transform="scale(1 1) rotate(0) translate(4 280)">
<title>dependencies</title>
<polygon fill="#ffffff" stroke="transparent" points="-4,4 -4,-280 1349,-280 1349,4 -4,4"/>
<text text-anchor="start" x="651.5091" y="-42.4" font-family="sans-serif" font-weight="bold" font-size="14.00" fill="#000000">Legend</text>
<polygon fill="#ffffb3" stroke="transparent" points="438.5,-10 438.5,-30 458.5,-30 458.5,-10 438.5,-10"/>
<text text-anchor="start" x="462.129" y="-15.4" font-family="sans-serif" font-size="14.00" fill="#000000"> &#160;Declarations</text>
<polygon fill="#8dd3c7" stroke="transparent" points="551.5,-10 551.5,-30 571.5,-30 571.5,-10 551.5,-10"/>
<text text-anchor="start" x="575.2251" y="-15.4" font-family="sans-serif" font-size="14.00" fill="#000000"> &#160;Module</text>
<polygon fill="#80b1d3" stroke="transparent" points="637.5,-10 637.5,-30 657.5,-30 657.5,-10 637.5,-10"/>
<text text-anchor="start" x="661.2812" y="-15.4" font-family="sans-serif" font-size="14.00" fill="#000000"> &#160;Bootstrap</text>
<polygon fill="#fdb462" stroke="transparent" points="734.5,-10 734.5,-30 754.5,-30 754.5,-10 734.5,-10"/>
<text text-anchor="start" x="758.1732" y="-15.4" font-family="sans-serif" font-size="14.00" fill="#000000"> &#160;Providers</text>
<polygon fill="#fb8072" stroke="transparent" points="830.5,-10 830.5,-30 850.5,-30 850.5,-10 830.5,-10"/>
<text text-anchor="start" x="854.2258" y="-15.4" font-family="sans-serif" font-size="14.00" fill="#000000"> &#160;Exports</text>
<g id="clust1" class="cluster">
<title>cluster_SharedModule</title>
<polygon fill="none" stroke="#000000" stroke-dasharray="1,5" points="8,-70 8,-268 1337,-268 1337,-70 8,-70"/>
</g>
<g id="clust2" class="cluster">
<title>cluster_SharedModule_declarations</title>
<polygon fill="none" stroke="#000000" points="969,-78 969,-130 1329,-130 1329,-78 969,-78"/>
</g>
<g id="clust6" class="cluster">
<title>cluster_SharedModule_exports</title>
<polygon fill="none" stroke="#000000" points="474,-208 474,-260 841,-260 841,-208 474,-208"/>
</g>
<g id="clust8" class="cluster">
<title>cluster_SharedModule_providers</title>
<polygon fill="none" stroke="#000000" points="16,-78 16,-130 961,-130 961,-78 16,-78"/>
</g>
<!-- ProductCardComponent -->
<g id="node1" class="node">
<title>ProductCardComponent</title>
<polygon fill="#ffffb3" stroke="#000000" points="1321.0926,-122 1168.9074,-122 1168.9074,-86 1321.0926,-86 1321.0926,-122"/>
<text text-anchor="middle" x="1245" y="-99.8" font-family="Times,serif" font-size="14.00" fill="#000000">ProductCardComponent</text>
</g>
<!-- SharedModule -->
<g id="node3" class="node">
<title>SharedModule</title>
<polygon fill="#8dd3c7" stroke="#000000" points="712.4231,-187 709.4231,-191 688.4231,-191 685.4231,-187 613.5769,-187 613.5769,-151 712.4231,-151 712.4231,-187"/>
<text text-anchor="middle" x="663" y="-164.8" font-family="Times,serif" font-size="14.00" fill="#000000">SharedModule</text>
</g>
<!-- ProductCardComponent&#45;&gt;SharedModule -->
<g id="edge1" class="edge">
<title>ProductCardComponent&#45;&gt;SharedModule</title>
<path fill="none" stroke="#000000" d="M1245,-122.2921C1245,-144.2057 1245,-178 1245,-178 1245,-178 722.621,-178 722.621,-178"/>
<polygon fill="#000000" stroke="#000000" points="722.621,-174.5001 712.621,-178 722.621,-181.5001 722.621,-174.5001"/>
</g>
<!-- ProductQuantityComponent -->
<g id="node2" class="node">
<title>ProductQuantityComponent</title>
<polygon fill="#ffffb3" stroke="#000000" points="1150.8738,-122 977.1262,-122 977.1262,-86 1150.8738,-86 1150.8738,-122"/>
<text text-anchor="middle" x="1064" y="-99.8" font-family="Times,serif" font-size="14.00" fill="#000000">ProductQuantityComponent</text>
</g>
<!-- ProductQuantityComponent&#45;&gt;SharedModule -->
<g id="edge2" class="edge">
<title>ProductQuantityComponent&#45;&gt;SharedModule</title>
<path fill="none" stroke="#000000" d="M1064,-122.1061C1064,-141.3391 1064,-169 1064,-169 1064,-169 722.5727,-169 722.5727,-169"/>
<polygon fill="#000000" stroke="#000000" points="722.5727,-165.5001 712.5727,-169 722.5726,-172.5001 722.5727,-165.5001"/>
</g>
<!-- ProductCardComponent  -->
<g id="node4" class="node">
<title>ProductCardComponent </title>
<polygon fill="#fb8072" stroke="#000000" points="832.5931,-252 677.4069,-252 677.4069,-216 832.5931,-216 832.5931,-252"/>
<text text-anchor="middle" x="755" y="-229.8" font-family="Times,serif" font-size="14.00" fill="#000000">ProductCardComponent </text>
</g>
<!-- SharedModule&#45;&gt;ProductCardComponent  -->
<g id="edge3" class="edge">
<title>SharedModule&#45;&gt;ProductCardComponent </title>
<path fill="none" stroke="#000000" stroke-dasharray="5,2" d="M694.7074,-187.1061C694.7074,-187.1061 694.7074,-205.991 694.7074,-205.991"/>
<polygon fill="#000000" stroke="#000000" points="691.2075,-205.9909 694.7074,-215.991 698.2075,-205.991 691.2075,-205.9909"/>
</g>
<!-- ProductQuantityComponent  -->
<g id="node5" class="node">
<title>ProductQuantityComponent </title>
<polygon fill="#fb8072" stroke="#000000" points="659.8742,-252 482.1258,-252 482.1258,-216 659.8742,-216 659.8742,-252"/>
<text text-anchor="middle" x="571" y="-229.8" font-family="Times,serif" font-size="14.00" fill="#000000">ProductQuantityComponent </text>
</g>
<!-- SharedModule&#45;&gt;ProductQuantityComponent  -->
<g id="edge4" class="edge">
<title>SharedModule&#45;&gt;ProductQuantityComponent </title>
<path fill="none" stroke="#000000" stroke-dasharray="5,2" d="M636.7379,-187.1061C636.7379,-187.1061 636.7379,-205.991 636.7379,-205.991"/>
<polygon fill="#000000" stroke="#000000" points="633.238,-205.9909 636.7379,-215.991 640.238,-205.991 633.238,-205.9909"/>
</g>
<!-- AuthService -->
<g id="node6" class="node">
<title>AuthService</title>
<ellipse fill="#fdb462" stroke="#000000" cx="894" cy="-104" rx="59.1083" ry="18"/>
<text text-anchor="middle" x="894" y="-99.8" font-family="Times,serif" font-size="14.00" fill="#000000">AuthService</text>
</g>
<!-- AuthService&#45;&gt;SharedModule -->
<g id="edge5" class="edge">
<title>AuthService&#45;&gt;SharedModule</title>
<path fill="none" stroke="#000000" d="M894,-122.027C894,-138.3976 894,-160 894,-160 894,-160 722.272,-160 722.272,-160"/>
<polygon fill="#000000" stroke="#000000" points="722.272,-156.5001 712.272,-160 722.2719,-163.5001 722.272,-156.5001"/>
</g>
<!-- CategoryService -->
<g id="node7" class="node">
<title>CategoryService</title>
<ellipse fill="#fdb462" stroke="#000000" cx="741" cy="-104" rx="75.279" ry="18"/>
<text text-anchor="middle" x="741" y="-99.8" font-family="Times,serif" font-size="14.00" fill="#000000">CategoryService</text>
</g>
<!-- CategoryService&#45;&gt;SharedModule -->
<g id="edge6" class="edge">
<title>CategoryService&#45;&gt;SharedModule</title>
<path fill="none" stroke="#000000" d="M688.9108,-117.1537C688.9108,-117.1537 688.9108,-140.6938 688.9108,-140.6938"/>
<polygon fill="#000000" stroke="#000000" points="685.4109,-140.6938 688.9108,-150.6938 692.4109,-140.6939 685.4109,-140.6938"/>
</g>
<!-- OrderService -->
<g id="node8" class="node">
<title>OrderService</title>
<ellipse fill="#fdb462" stroke="#000000" cx="585" cy="-104" rx="62.516" ry="18"/>
<text text-anchor="middle" x="585" y="-99.8" font-family="Times,serif" font-size="14.00" fill="#000000">OrderService</text>
</g>
<!-- OrderService&#45;&gt;SharedModule -->
<g id="edge7" class="edge">
<title>OrderService&#45;&gt;SharedModule</title>
<path fill="none" stroke="#000000" d="M630.6485,-116.5327C630.6485,-116.5327 630.6485,-140.8507 630.6485,-140.8507"/>
<polygon fill="#000000" stroke="#000000" points="627.1486,-140.8506 630.6485,-150.8507 634.1486,-140.8507 627.1486,-140.8506"/>
</g>
<!-- ProductService -->
<g id="node9" class="node">
<title>ProductService</title>
<ellipse fill="#fdb462" stroke="#000000" cx="434" cy="-104" rx="70.0616" ry="18"/>
<text text-anchor="middle" x="434" y="-99.8" font-family="Times,serif" font-size="14.00" fill="#000000">ProductService</text>
</g>
<!-- ProductService&#45;&gt;SharedModule -->
<g id="edge8" class="edge">
<title>ProductService&#45;&gt;SharedModule</title>
<path fill="none" stroke="#000000" d="M493.1719,-113.7545C493.1719,-129.7988 493.1719,-160 493.1719,-160 493.1719,-160 603.4222,-160 603.4222,-160"/>
<polygon fill="#000000" stroke="#000000" points="603.4222,-163.5001 613.4222,-160 603.4221,-156.5001 603.4222,-163.5001"/>
</g>
<!-- ShoppingCartService -->
<g id="node10" class="node">
<title>ShoppingCartService</title>
<ellipse fill="#fdb462" stroke="#000000" cx="252" cy="-104" rx="93.7804" ry="18"/>
<text text-anchor="middle" x="252" y="-99.8" font-family="Times,serif" font-size="14.00" fill="#000000">ShoppingCartService</text>
</g>
<!-- ShoppingCartService&#45;&gt;SharedModule -->
<g id="edge9" class="edge">
<title>ShoppingCartService&#45;&gt;SharedModule</title>
<path fill="none" stroke="#000000" d="M252,-122.1061C252,-141.3391 252,-169 252,-169 252,-169 603.4238,-169 603.4238,-169"/>
<polygon fill="#000000" stroke="#000000" points="603.4238,-172.5001 613.4238,-169 603.4238,-165.5001 603.4238,-172.5001"/>
</g>
<!-- UserService -->
<g id="node11" class="node">
<title>UserService</title>
<ellipse fill="#fdb462" stroke="#000000" cx="82" cy="-104" rx="58.4415" ry="18"/>
<text text-anchor="middle" x="82" y="-99.8" font-family="Times,serif" font-size="14.00" fill="#000000">UserService</text>
</g>
<!-- UserService&#45;&gt;SharedModule -->
<g id="edge10" class="edge">
<title>UserService&#45;&gt;SharedModule</title>
<path fill="none" stroke="#000000" d="M82,-122.2921C82,-144.2057 82,-178 82,-178 82,-178 603.4643,-178 603.4643,-178"/>
<polygon fill="#000000" stroke="#000000" points="603.4643,-181.5001 613.4643,-178 603.4642,-174.5001 603.4643,-181.5001"/>
</g>
</g>
</svg>
