<?xml version="1.0" encoding="UTF-8" standalone="no"?>
<!DOCTYPE svg PUBLIC "-//W3C//DTD SVG 1.1//EN"
 "http://www.w3.org/Graphics/SVG/1.1/DTD/svg11.dtd">
<!-- Generated by graphviz version 2.40.1 (20161225.0304)
 -->
<!-- Title: dependencies Pages: 1 -->
<svg width="1822pt" height="211pt"
 viewBox="0.00 0.00 1822.00 211.00" xmlns="http://www.w3.org/2000/svg" xmlns:xlink="http://www.w3.org/1999/xlink">
<g id="graph0" class="graph" transform="scale(1 1) rotate(0) translate(4 207)">
<title>dependencies</title>
<polygon fill="#ffffff" stroke="transparent" points="-4,4 -4,-207 1818,-207 1818,4 -4,4"/>
<text text-anchor="start" x="886.0091" y="-42.4" font-family="sans-serif" font-weight="bold" font-size="14.00" fill="#000000">Legend</text>
<polygon fill="#ffffb3" stroke="transparent" points="673,-10 673,-30 693,-30 693,-10 673,-10"/>
<text text-anchor="start" x="696.629" y="-15.4" font-family="sans-serif" font-size="14.00" fill="#000000"> &#160;Declarations</text>
<polygon fill="#8dd3c7" stroke="transparent" points="786,-10 786,-30 806,-30 806,-10 786,-10"/>
<text text-anchor="start" x="809.7251" y="-15.4" font-family="sans-serif" font-size="14.00" fill="#000000"> &#160;Module</text>
<polygon fill="#80b1d3" stroke="transparent" points="872,-10 872,-30 892,-30 892,-10 872,-10"/>
<text text-anchor="start" x="895.7812" y="-15.4" font-family="sans-serif" font-size="14.00" fill="#000000"> &#160;Bootstrap</text>
<polygon fill="#fdb462" stroke="transparent" points="969,-10 969,-30 989,-30 989,-10 969,-10"/>
<text text-anchor="start" x="992.6732" y="-15.4" font-family="sans-serif" font-size="14.00" fill="#000000"> &#160;Providers</text>
<polygon fill="#fb8072" stroke="transparent" points="1065,-10 1065,-30 1085,-30 1085,-10 1065,-10"/>
<text text-anchor="start" x="1088.7258" y="-15.4" font-family="sans-serif" font-size="14.00" fill="#000000"> &#160;Exports</text>
<g id="clust1" class="cluster">
<title>cluster_ShoppingModule</title>
<polygon fill="none" stroke="#000000" stroke-dasharray="1,5" points="8,-70 8,-195 1806,-195 1806,-70 8,-70"/>
</g>
<g id="clust2" class="cluster">
<title>cluster_ShoppingModule_declarations</title>
<polygon fill="none" stroke="#000000" points="138,-78 138,-130 1798,-130 1798,-78 138,-78"/>
</g>
<g id="clust13" class="cluster">
<title>cluster_ShoppingModule_imports</title>
<polygon fill="none" stroke="#000000" points="16,-78 16,-130 130,-130 130,-78 16,-78"/>
</g>
<!-- CheckOutComponent -->
<g id="node1" class="node">
<title>CheckOutComponent</title>
<polygon fill="#ffffb3" stroke="#000000" points="1790.0954,-122 1651.9046,-122 1651.9046,-86 1790.0954,-86 1790.0954,-122"/>
<text text-anchor="middle" x="1721" y="-99.8" font-family="Times,serif" font-size="14.00" fill="#000000">CheckOutComponent</text>
</g>
<!-- ShoppingModule -->
<g id="node11" class="node">
<title>ShoppingModule</title>
<polygon fill="#8dd3c7" stroke="#000000" points="984.7232,-187 981.7232,-191 960.7232,-191 957.7232,-187 871.2768,-187 871.2768,-151 984.7232,-151 984.7232,-187"/>
<text text-anchor="middle" x="928" y="-164.8" font-family="Times,serif" font-size="14.00" fill="#000000">ShoppingModule</text>
</g>
<!-- CheckOutComponent&#45;&gt;ShoppingModule -->
<g id="edge1" class="edge">
<title>CheckOutComponent&#45;&gt;ShoppingModule</title>
<path fill="none" stroke="#000000" d="M1721,-122.0908C1721,-145.1328 1721,-182 1721,-182 1721,-182 994.7124,-182 994.7124,-182"/>
<polygon fill="#000000" stroke="#000000" points="994.7124,-178.5001 984.7124,-182 994.7123,-185.5001 994.7124,-178.5001"/>
</g>
<!-- DetailComponent -->
<g id="node2" class="node">
<title>DetailComponent</title>
<polygon fill="#ffffb3" stroke="#000000" points="1633.5409,-122 1518.4591,-122 1518.4591,-86 1633.5409,-86 1633.5409,-122"/>
<text text-anchor="middle" x="1576" y="-99.8" font-family="Times,serif" font-size="14.00" fill="#000000">DetailComponent</text>
</g>
<!-- DetailComponent&#45;&gt;ShoppingModule -->
<g id="edge2" class="edge">
<title>DetailComponent&#45;&gt;ShoppingModule</title>
<path fill="none" stroke="#000000" d="M1576,-122.2843C1576,-143.3211 1576,-175 1576,-175 1576,-175 994.6547,-175 994.6547,-175"/>
<polygon fill="#000000" stroke="#000000" points="994.6547,-171.5001 984.6547,-175 994.6546,-178.5001 994.6547,-171.5001"/>
</g>
<!-- MyOrdersComponent -->
<g id="node3" class="node">
<title>MyOrdersComponent</title>
<polygon fill="#ffffb3" stroke="#000000" points="1500.3641,-122 1361.6359,-122 1361.6359,-86 1500.3641,-86 1500.3641,-122"/>
<text text-anchor="middle" x="1431" y="-99.8" font-family="Times,serif" font-size="14.00" fill="#000000">MyOrdersComponent</text>
</g>
<!-- MyOrdersComponent&#45;&gt;ShoppingModule -->
<g id="edge3" class="edge">
<title>MyOrdersComponent&#45;&gt;ShoppingModule</title>
<path fill="none" stroke="#000000" d="M1431,-122.1061C1431,-141.3391 1431,-169 1431,-169 1431,-169 994.7227,-169 994.7227,-169"/>
<polygon fill="#000000" stroke="#000000" points="994.7228,-165.5001 984.7227,-169 994.7227,-172.5001 994.7228,-165.5001"/>
</g>
<!-- OrderSuccessComponent -->
<g id="node4" class="node">
<title>OrderSuccessComponent</title>
<polygon fill="#ffffb3" stroke="#000000" points="1343.2907,-122 1184.7093,-122 1184.7093,-86 1343.2907,-86 1343.2907,-122"/>
<text text-anchor="middle" x="1264" y="-99.8" font-family="Times,serif" font-size="14.00" fill="#000000">OrderSuccessComponent</text>
</g>
<!-- OrderSuccessComponent&#45;&gt;ShoppingModule -->
<g id="edge4" class="edge">
<title>OrderSuccessComponent&#45;&gt;ShoppingModule</title>
<path fill="none" stroke="#000000" d="M1264,-122.0225C1264,-139.3734 1264,-163 1264,-163 1264,-163 994.6179,-163 994.6179,-163"/>
<polygon fill="#000000" stroke="#000000" points="994.6179,-159.5001 984.6179,-163 994.6178,-166.5001 994.6179,-159.5001"/>
</g>
<!-- ProductFilterComponent -->
<g id="node5" class="node">
<title>ProductFilterComponent</title>
<polygon fill="#ffffb3" stroke="#000000" points="1166.7105,-122 1011.2895,-122 1011.2895,-86 1166.7105,-86 1166.7105,-122"/>
<text text-anchor="middle" x="1089" y="-99.8" font-family="Times,serif" font-size="14.00" fill="#000000">ProductFilterComponent</text>
</g>
<!-- ProductFilterComponent&#45;&gt;ShoppingModule -->
<g id="edge5" class="edge">
<title>ProductFilterComponent&#45;&gt;ShoppingModule</title>
<path fill="none" stroke="#000000" d="M1089,-122.2396C1089,-137.5706 1089,-157 1089,-157 1089,-157 994.7626,-157 994.7626,-157"/>
<polygon fill="#000000" stroke="#000000" points="994.7626,-153.5001 984.7626,-157 994.7625,-160.5001 994.7626,-153.5001"/>
</g>
<!-- ProductsComponent -->
<g id="node6" class="node">
<title>ProductsComponent</title>
<polygon fill="#ffffb3" stroke="#000000" points="993.3258,-122 862.6742,-122 862.6742,-86 993.3258,-86 993.3258,-122"/>
<text text-anchor="middle" x="928" y="-99.8" font-family="Times,serif" font-size="14.00" fill="#000000">ProductsComponent</text>
</g>
<!-- ProductsComponent&#45;&gt;ShoppingModule -->
<g id="edge6" class="edge">
<title>ProductsComponent&#45;&gt;ShoppingModule</title>
<path fill="none" stroke="#000000" d="M928,-122.1061C928,-122.1061 928,-140.991 928,-140.991"/>
<polygon fill="#000000" stroke="#000000" points="924.5001,-140.9909 928,-150.991 931.5001,-140.991 924.5001,-140.9909"/>
</g>
<!-- ShippingFormComponent -->
<g id="node7" class="node">
<title>ShippingFormComponent</title>
<polygon fill="#ffffb3" stroke="#000000" points="845.2302,-122 682.7698,-122 682.7698,-86 845.2302,-86 845.2302,-122"/>
<text text-anchor="middle" x="764" y="-99.8" font-family="Times,serif" font-size="14.00" fill="#000000">ShippingFormComponent</text>
</g>
<!-- ShippingFormComponent&#45;&gt;ShoppingModule -->
<g id="edge7" class="edge">
<title>ShippingFormComponent&#45;&gt;ShoppingModule</title>
<path fill="none" stroke="#000000" d="M764,-122.2396C764,-137.5706 764,-157 764,-157 764,-157 861.101,-157 861.101,-157"/>
<polygon fill="#000000" stroke="#000000" points="861.1011,-160.5001 871.101,-157 861.101,-153.5001 861.1011,-160.5001"/>
</g>
<!-- ShopComponent -->
<g id="node8" class="node">
<title>ShopComponent</title>
<polygon fill="#ffffb3" stroke="#000000" points="665.1151,-122 554.8849,-122 554.8849,-86 665.1151,-86 665.1151,-122"/>
<text text-anchor="middle" x="610" y="-99.8" font-family="Times,serif" font-size="14.00" fill="#000000">ShopComponent</text>
</g>
<!-- ShopComponent&#45;&gt;ShoppingModule -->
<g id="edge8" class="edge">
<title>ShopComponent&#45;&gt;ShoppingModule</title>
<path fill="none" stroke="#000000" d="M610,-122.0225C610,-139.3734 610,-163 610,-163 610,-163 861.148,-163 861.148,-163"/>
<polygon fill="#000000" stroke="#000000" points="861.148,-166.5001 871.148,-163 861.1479,-159.5001 861.148,-166.5001"/>
</g>
<!-- ShoppingCartComponent -->
<g id="node9" class="node">
<title>ShoppingCartComponent</title>
<polygon fill="#ffffb3" stroke="#000000" points="536.608,-122 377.392,-122 377.392,-86 536.608,-86 536.608,-122"/>
<text text-anchor="middle" x="457" y="-99.8" font-family="Times,serif" font-size="14.00" fill="#000000">ShoppingCartComponent</text>
</g>
<!-- ShoppingCartComponent&#45;&gt;ShoppingModule -->
<g id="edge9" class="edge">
<title>ShoppingCartComponent&#45;&gt;ShoppingModule</title>
<path fill="none" stroke="#000000" d="M457,-122.1061C457,-141.3391 457,-169 457,-169 457,-169 861.1864,-169 861.1864,-169"/>
<polygon fill="#000000" stroke="#000000" points="861.1864,-172.5001 871.1864,-169 861.1864,-165.5001 861.1864,-172.5001"/>
</g>
<!-- ShoppingCartSummaryComponent -->
<g id="node10" class="node">
<title>ShoppingCartSummaryComponent</title>
<polygon fill="#ffffb3" stroke="#000000" points="359.5475,-122 146.4525,-122 146.4525,-86 359.5475,-86 359.5475,-122"/>
<text text-anchor="middle" x="253" y="-99.8" font-family="Times,serif" font-size="14.00" fill="#000000">ShoppingCartSummaryComponent</text>
</g>
<!-- ShoppingCartSummaryComponent&#45;&gt;ShoppingModule -->
<g id="edge10" class="edge">
<title>ShoppingCartSummaryComponent&#45;&gt;ShoppingModule</title>
<path fill="none" stroke="#000000" d="M253,-122.2843C253,-143.3211 253,-175 253,-175 253,-175 861.3216,-175 861.3216,-175"/>
<polygon fill="#000000" stroke="#000000" points="861.3216,-178.5001 871.3216,-175 861.3215,-171.5001 861.3216,-178.5001"/>
</g>
<!-- SharedModule -->
<g id="node12" class="node">
<title>SharedModule</title>
<polygon fill="#8dd3c7" stroke="#000000" points="122.4231,-122 119.4231,-126 98.4231,-126 95.4231,-122 23.5769,-122 23.5769,-86 122.4231,-86 122.4231,-122"/>
<text text-anchor="middle" x="73" y="-99.8" font-family="Times,serif" font-size="14.00" fill="#000000">SharedModule</text>
</g>
<!-- SharedModule&#45;&gt;ShoppingModule -->
<g id="edge11" class="edge">
<title>SharedModule&#45;&gt;ShoppingModule</title>
<path fill="none" stroke="#000000" d="M73,-122.0908C73,-145.1328 73,-182 73,-182 73,-182 861.2389,-182 861.2389,-182"/>
<polygon fill="#000000" stroke="#000000" points="861.2389,-185.5001 871.2389,-182 861.2389,-178.5001 861.2389,-185.5001"/>
</g>
</g>
</svg>
