<?xml version="1.0" encoding="UTF-8" standalone="no"?>
<!DOCTYPE svg PUBLIC "-//W3C//DTD SVG 1.1//EN"
 "http://www.w3.org/Graphics/SVG/1.1/DTD/svg11.dtd">
<!-- Generated by graphviz version 2.40.1 (20161225.0304)
 -->
<!-- Title: dependencies Pages: 1 -->
<svg width="697pt" height="211pt"
 viewBox="0.00 0.00 697.00 211.00" xmlns="http://www.w3.org/2000/svg" xmlns:xlink="http://www.w3.org/1999/xlink">
<g id="graph0" class="graph" transform="scale(1 1) rotate(0) translate(4 207)">
<title>dependencies</title>
<polygon fill="#ffffff" stroke="transparent" points="-4,4 -4,-207 693,-207 693,4 -4,4"/>
<text text-anchor="start" x="323.5091" y="-42.4" font-family="sans-serif" font-weight="bold" font-size="14.00" fill="#000000">Legend</text>
<polygon fill="#ffffb3" stroke="transparent" points="110.5,-10 110.5,-30 130.5,-30 130.5,-10 110.5,-10"/>
<text text-anchor="start" x="134.129" y="-15.4" font-family="sans-serif" font-size="14.00" fill="#000000"> &#160;Declarations</text>
<polygon fill="#8dd3c7" stroke="transparent" points="223.5,-10 223.5,-30 243.5,-30 243.5,-10 223.5,-10"/>
<text text-anchor="start" x="247.2251" y="-15.4" font-family="sans-serif" font-size="14.00" fill="#000000"> &#160;Module</text>
<polygon fill="#80b1d3" stroke="transparent" points="309.5,-10 309.5,-30 329.5,-30 329.5,-10 309.5,-10"/>
<text text-anchor="start" x="333.2812" y="-15.4" font-family="sans-serif" font-size="14.00" fill="#000000"> &#160;Bootstrap</text>
<polygon fill="#fdb462" stroke="transparent" points="406.5,-10 406.5,-30 426.5,-30 426.5,-10 406.5,-10"/>
<text text-anchor="start" x="430.1732" y="-15.4" font-family="sans-serif" font-size="14.00" fill="#000000"> &#160;Providers</text>
<polygon fill="#fb8072" stroke="transparent" points="502.5,-10 502.5,-30 522.5,-30 522.5,-10 502.5,-10"/>
<text text-anchor="start" x="526.2258" y="-15.4" font-family="sans-serif" font-size="14.00" fill="#000000"> &#160;Exports</text>
<g id="clust1" class="cluster">
<title>cluster_AdminModule</title>
<polygon fill="none" stroke="#000000" stroke-dasharray="1,5" points="8,-70 8,-195 681,-195 681,-70 8,-70"/>
</g>
<g id="clust2" class="cluster">
<title>cluster_AdminModule_declarations</title>
<polygon fill="none" stroke="#000000" points="138,-78 138,-130 673,-130 673,-78 138,-78"/>
</g>
<g id="clust6" class="cluster">
<title>cluster_AdminModule_imports</title>
<polygon fill="none" stroke="#000000" points="16,-78 16,-130 130,-130 130,-78 16,-78"/>
</g>
<!-- AdminOrdersComponent -->
<g id="node1" class="node">
<title>AdminOrdersComponent</title>
<polygon fill="#ffffb3" stroke="#000000" points="665.3075,-122 506.6925,-122 506.6925,-86 665.3075,-86 665.3075,-122"/>
<text text-anchor="middle" x="586" y="-99.8" font-family="Times,serif" font-size="14.00" fill="#000000">AdminOrdersComponent</text>
</g>
<!-- AdminModule -->
<g id="node4" class="node">
<title>AdminModule</title>
<polygon fill="#8dd3c7" stroke="#000000" points="363.4386,-187 360.4386,-191 339.4386,-191 336.4386,-187 264.5614,-187 264.5614,-151 363.4386,-151 363.4386,-187"/>
<text text-anchor="middle" x="314" y="-164.8" font-family="Times,serif" font-size="14.00" fill="#000000">AdminModule</text>
</g>
<!-- AdminOrdersComponent&#45;&gt;AdminModule -->
<g id="edge1" class="edge">
<title>AdminOrdersComponent&#45;&gt;AdminModule</title>
<path fill="none" stroke="#000000" d="M586,-122.1061C586,-141.3391 586,-169 586,-169 586,-169 373.2571,-169 373.2571,-169"/>
<polygon fill="#000000" stroke="#000000" points="373.2572,-165.5001 363.2571,-169 373.2571,-172.5001 373.2572,-165.5001"/>
</g>
<!-- AdminProductsComponent -->
<g id="node2" class="node">
<title>AdminProductsComponent</title>
<polygon fill="#ffffb3" stroke="#000000" points="488.7133,-122 319.2867,-122 319.2867,-86 488.7133,-86 488.7133,-122"/>
<text text-anchor="middle" x="404" y="-99.8" font-family="Times,serif" font-size="14.00" fill="#000000">AdminProductsComponent</text>
</g>
<!-- AdminProductsComponent&#45;&gt;AdminModule -->
<g id="edge2" class="edge">
<title>AdminProductsComponent&#45;&gt;AdminModule</title>
<path fill="none" stroke="#000000" d="M341.3061,-122.1061C341.3061,-122.1061 341.3061,-140.991 341.3061,-140.991"/>
<polygon fill="#000000" stroke="#000000" points="337.8062,-140.9909 341.3061,-150.991 344.8062,-140.991 337.8062,-140.9909"/>
</g>
<!-- ProductFormComponent -->
<g id="node3" class="node">
<title>ProductFormComponent</title>
<polygon fill="#ffffb3" stroke="#000000" points="301.7147,-122 146.2853,-122 146.2853,-86 301.7147,-86 301.7147,-122"/>
<text text-anchor="middle" x="224" y="-99.8" font-family="Times,serif" font-size="14.00" fill="#000000">ProductFormComponent</text>
</g>
<!-- ProductFormComponent&#45;&gt;AdminModule -->
<g id="edge3" class="edge">
<title>ProductFormComponent&#45;&gt;AdminModule</title>
<path fill="none" stroke="#000000" d="M283.1943,-122.1061C283.1943,-122.1061 283.1943,-140.991 283.1943,-140.991"/>
<polygon fill="#000000" stroke="#000000" points="279.6943,-140.9909 283.1943,-150.991 286.6943,-140.991 279.6943,-140.9909"/>
</g>
<!-- SharedModule -->
<g id="node5" class="node">
<title>SharedModule</title>
<polygon fill="#8dd3c7" stroke="#000000" points="122.4231,-122 119.4231,-126 98.4231,-126 95.4231,-122 23.5769,-122 23.5769,-86 122.4231,-86 122.4231,-122"/>
<text text-anchor="middle" x="73" y="-99.8" font-family="Times,serif" font-size="14.00" fill="#000000">SharedModule</text>
</g>
<!-- SharedModule&#45;&gt;AdminModule -->
<g id="edge4" class="edge">
<title>SharedModule&#45;&gt;AdminModule</title>
<path fill="none" stroke="#000000" d="M73,-122.1061C73,-141.3391 73,-169 73,-169 73,-169 254.6485,-169 254.6485,-169"/>
<polygon fill="#000000" stroke="#000000" points="254.6485,-172.5001 264.6485,-169 254.6485,-165.5001 254.6485,-172.5001"/>
</g>
</g>
</svg>
